<svg aria-hidden="true" style="position: absolute; width: 0; height: 0; overflow: hidden;" version="1.1" xmlns="http://www.w3.org/2000/svg" xmlns:xlink="http://www.w3.org/1999/xlink">
<defs>
<symbol id="icon-Enter-the-text" viewBox="0 0 221 32">
<path fill="#757575" style="fill: var(--color1, #757575)" opacity="0.5" d="M15.417 17.065h-11.503v9.406h13.362v2.862h-16.862v-26.542h16.68v2.88h-13.18v8.531h11.503v2.862zM24.668 9.609l0.109 2.479c1.507-1.896 3.476-2.844 5.906-2.844 4.169 0 6.271 2.352 6.307 7.055v13.034h-3.372v-13.052c-0.012-1.422-0.34-2.473-0.984-3.154-0.632-0.681-1.622-1.021-2.971-1.021-1.094 0-2.054 0.292-2.88 0.875s-1.47 1.349-1.932 2.297v14.055h-3.372v-19.724h3.19zM47.025 4.833v4.776h3.682v2.607h-3.682v12.232c0 0.79 0.164 1.385 0.492 1.786 0.328 0.389 0.887 0.583 1.677 0.583 0.389 0 0.923-0.073 1.604-0.219v2.734c-0.887 0.243-1.75 0.365-2.589 0.365-1.507 0-2.643-0.456-3.409-1.367s-1.149-2.206-1.149-3.883v-12.232h-3.591v-2.607h3.591v-4.776h3.373zM63.222 29.698c-2.674 0-4.849-0.875-6.526-2.625-1.677-1.762-2.515-4.114-2.515-7.055v-0.62c0-1.957 0.371-3.7 1.112-5.232 0.753-1.543 1.798-2.747 3.135-3.609 1.349-0.875 2.807-1.312 4.375-1.312 2.564 0 4.557 0.845 5.979 2.534s2.133 4.108 2.133 7.255v1.404h-13.362c0.049 1.944 0.614 3.518 1.695 4.721 1.094 1.191 2.479 1.786 4.156 1.786 1.191 0 2.2-0.243 3.026-0.729s1.55-1.13 2.169-1.932l2.060 1.604c-1.653 2.54-4.132 3.81-7.437 3.81zM62.802 12.016c-1.361 0-2.503 0.498-3.427 1.495-0.924 0.984-1.495 2.37-1.714 4.156h9.88v-0.255c-0.097-1.714-0.559-3.038-1.385-3.974-0.826-0.948-1.945-1.422-3.354-1.422zM84.741 12.635c-0.51-0.085-1.063-0.128-1.659-0.128-2.212 0-3.713 0.942-4.503 2.826v14h-3.372v-19.724h3.281l0.055 2.279c1.106-1.762 2.674-2.643 4.703-2.643 0.656 0 1.155 0.085 1.495 0.255v3.135zM102.441 4.833v4.776h3.682v2.607h-3.682v12.232c0 0.79 0.164 1.385 0.492 1.786 0.328 0.389 0.887 0.583 1.677 0.583 0.389 0 0.923-0.073 1.604-0.219v2.734c-0.887 0.243-1.75 0.365-2.589 0.365-1.507 0-2.643-0.456-3.409-1.367s-1.149-2.206-1.149-3.883v-12.232h-3.591v-2.607h3.591v-4.776h3.373zM113.824 11.997c1.495-1.835 3.439-2.753 5.833-2.753 4.169 0 6.271 2.352 6.307 7.055v13.034h-3.372v-13.052c-0.012-1.422-0.34-2.473-0.985-3.154-0.632-0.681-1.622-1.021-2.971-1.021-1.094 0-2.054 0.292-2.88 0.875s-1.47 1.349-1.932 2.297v14.055h-3.372v-28h3.372v10.664zM139.573 29.698c-2.674 0-4.849-0.875-6.526-2.625-1.677-1.762-2.516-4.114-2.516-7.055v-0.62c0-1.957 0.371-3.7 1.112-5.232 0.753-1.543 1.799-2.747 3.135-3.609 1.349-0.875 2.807-1.312 4.375-1.312 2.564 0 4.557 0.845 5.979 2.534s2.133 4.108 2.133 7.255v1.404h-13.362c0.049 1.944 0.614 3.518 1.695 4.721 1.094 1.191 2.479 1.786 4.156 1.786 1.191 0 2.2-0.243 3.026-0.729s1.549-1.13 2.169-1.932l2.060 1.604c-1.653 2.54-4.132 3.81-7.438 3.81zM139.153 12.016c-1.361 0-2.503 0.498-3.427 1.495-0.923 0.984-1.495 2.37-1.713 4.156h9.88v-0.255c-0.097-1.714-0.559-3.038-1.385-3.974-0.826-0.948-1.945-1.422-3.354-1.422zM165.767 4.833v4.776h3.682v2.607h-3.682v12.232c0 0.79 0.164 1.385 0.492 1.786 0.328 0.389 0.887 0.583 1.677 0.583 0.389 0 0.923-0.073 1.604-0.219v2.734c-0.887 0.243-1.75 0.365-2.589 0.365-1.507 0-2.643-0.456-3.409-1.367s-1.149-2.206-1.149-3.883v-12.232h-3.591v-2.607h3.591v-4.776h3.373zM181.963 29.698c-2.674 0-4.849-0.875-6.526-2.625-1.677-1.762-2.515-4.114-2.515-7.055v-0.62c0-1.957 0.371-3.7 1.112-5.232 0.753-1.543 1.798-2.747 3.135-3.609 1.349-0.875 2.807-1.312 4.375-1.312 2.564 0 4.557 0.845 5.979 2.534s2.133 4.108 2.133 7.255v1.404h-13.362c0.049 1.944 0.614 3.518 1.695 4.721 1.094 1.191 2.479 1.786 4.156 1.786 1.191 0 2.2-0.243 3.026-0.729s1.55-1.13 2.169-1.932l2.060 1.604c-1.653 2.54-4.132 3.81-7.438 3.81zM181.544 12.016c-1.361 0-2.503 0.498-3.427 1.495-0.923 0.984-1.495 2.37-1.714 4.156h9.88v-0.255c-0.097-1.714-0.559-3.038-1.385-3.974-0.826-0.948-1.945-1.422-3.354-1.422zM200.566 16.81l4.375-7.2h3.937l-6.453 9.753 6.654 9.971h-3.901l-4.557-7.383-4.557 7.383h-3.919l6.654-9.971-6.453-9.753h3.901l4.32 7.2zM217.418 4.833v4.776h3.682v2.607h-3.682v12.232c0 0.79 0.164 1.385 0.492 1.786 0.328 0.389 0.887 0.583 1.677 0.583 0.389 0 0.923-0.073 1.604-0.219v2.734c-0.887 0.243-1.75 0.365-2.589 0.365-1.507 0-2.643-0.456-3.409-1.367s-1.148-2.206-1.148-3.883v-12.232h-3.591v-2.607h3.591v-4.776h3.372z"></path>
</symbol>
<symbol id="icon-send-icon" viewBox="0 0 32 32">
<path fill="#fff" style="fill: var(--color2, #fff)" d="M32 0l-32 18 10.227 3.788 15.773-14.788-11.998 16.186 0.010 0.004-0.012-0.004v8.814l5.735-6.691 7.265 2.691 5-28z"></path>
</symbol>
<symbol id="icon-Telephone" viewBox="0 0 32 32">
<path d="M27.419 20.852l-4.201-0.48c-1.009-0.116-2.002 0.232-2.713 0.943l-3.044 3.044c-4.681-2.382-8.519-6.203-10.901-10.901l3.060-3.060c0.711-0.711 1.059-1.704 0.943-2.713l-0.48-4.168c-0.198-1.671-1.604-2.928-3.292-2.928h-2.862c-1.869 0-3.424 1.555-3.308 3.424 0.877 14.126 12.174 25.407 26.284 26.284 1.869 0.116 3.424-1.439 3.424-3.308v-2.862c0.016-1.671-1.241-3.077-2.911-3.275z"></path>
</symbol>
<symbol id="icon-Envelope-1" viewBox="0 0 43 32">
<path d="M37.333 0h-32c-2.2 0-3.98 1.8-3.98 4l-0.020 24c0 2.2 1.8 4 4 4h32c2.2 0 4-1.8 4-4v-24c0-2.2-1.8-4-4-4zM36.533 8.5l-14.14 8.84c-0.64 0.4-1.48 0.4-2.12 0l-14.14-8.84c-0.5-0.32-0.8-0.86-0.8-1.44 0-1.34 1.46-2.14 2.6-1.44l13.4 8.38 13.4-8.38c1.14-0.7 2.6 0.1 2.6 1.44 0 0.58-0.3 1.12-0.8 1.44z"></path>
</symbol>
<symbol id="icon-Tick" viewBox="0 0 42 32">
<path fill="#fff" style="fill: var(--color2, #fff); stroke: var(--color2, #fff)" stroke="#fff" stroke-linejoin="miter" stroke-linecap="butt" stroke-miterlimit="4" stroke-width="0.64" d="M6.263 15.205l-0.22-0.21-3.307 3.132 11.651 11.114 24.477-23.351-3.285-3.134-21.192 20.197-8.124-7.75z"></path>
</symbol>
<symbol id="icon-icon-person" viewBox="0 0 32 32">
<path fill="#2196f3" style="fill: var(--color3, #2196f3)" d="M16 16c4.42 0 8-3.58 8-8s-3.58-8-8-8c-4.42 0-8 3.58-8 8s3.58 8 8 8zM16 20c-5.34 0-16 2.68-16 8v2c0 1.1 0.9 2 2 2h28c1.1 0 2-0.9 2-2v-2c0-5.32-10.66-8-16-8z"></path>
</symbol>
<symbol id="icon-smartphone" viewBox="0 0 20 32">
<path d="M17 0h-14c-1.654 0-3 1.346-3 3v26c0 1.654 1.346 3 3 3h14c1.654 0 3-1.346 3-3v-26c0-1.654-1.346-3-3-3zM3 2h14c0.552 0 1 0.448 1 1v21h-16v-21c0-0.552 0.448-1 1-1zM17 30h-14c-0.552 0-1-0.448-1-1v-3h16v3c0 0.552-0.448 1-1 1z"></path>
<path d="M4.707 27.478c0.391 0.365 0.391 0.956 0 1.321s-1.024 0.365-1.414 0c-0.391-0.365-0.391-0.956 0-1.321s1.024-0.365 1.414 0z"></path>
</symbol>
</defs>
</svg>
